<mxfile host="app.diagrams.net" modified="2024-05-07T22:34:59.328Z" agent="Mozilla/5.0 (Macintosh; Intel Mac OS X 10_15_7) AppleWebKit/605.1.15 (KHTML, like Gecko) Version/17.4.1 Safari/605.1.15" etag="SKGXHttAOLfHfkte93rm" version="24.3.1" type="github">
  <diagram name="Page-1" id="7GMT-beZkwUedmG0-DxE">
    <mxGraphModel dx="1026" dy="720" grid="1" gridSize="10" guides="1" tooltips="1" connect="1" arrows="1" fold="1" page="1" pageScale="1" pageWidth="850" pageHeight="1100" math="0" shadow="0">
      <root>
        <mxCell id="0" />
        <mxCell id="1" parent="0" />
        <mxCell id="VhOXe49pOfOXTvqwYOba-44" value="&lt;b&gt;&lt;font style=&quot;font-size: 15px;&quot;&gt;Enclave Chaincode&lt;br&gt;(Secret Keeper)&lt;br&gt;&lt;/font&gt;&lt;/b&gt;" style="rounded=0;whiteSpace=wrap;html=1;fillColor=#d5e8d4;strokeColor=#82b366;" parent="1" vertex="1">
          <mxGeometry x="290" y="20" width="110" height="310" as="geometry" />
        </mxCell>
        <mxCell id="VhOXe49pOfOXTvqwYOba-45" value="&lt;div style=&quot;text-align: left;&quot;&gt;&lt;span style=&quot;background-color: initial;&quot;&gt;World state (Init):&lt;/span&gt;&lt;/div&gt;&lt;div style=&quot;text-align: left;&quot;&gt;&lt;span style=&quot;background-color: initial;&quot;&gt;AuthorizationList = [Alice, Bob]&lt;/span&gt;&lt;/div&gt;&lt;div style=&quot;text-align: left;&quot;&gt;&lt;span style=&quot;background-color: initial;&quot;&gt;Secret = Default Secret&lt;/span&gt;&lt;/div&gt;" style="rounded=0;whiteSpace=wrap;html=1;fillColor=#d5e8d4;strokeColor=#82b366;" parent="1" vertex="1">
          <mxGeometry x="420" y="20" width="190" height="60" as="geometry" />
        </mxCell>
        <mxCell id="VhOXe49pOfOXTvqwYOba-57" style="edgeStyle=orthogonalEdgeStyle;rounded=0;orthogonalLoop=1;jettySize=auto;html=1;entryX=-0.007;entryY=0.084;entryDx=0;entryDy=0;entryPerimeter=0;" parent="1" source="VhOXe49pOfOXTvqwYOba-46" target="VhOXe49pOfOXTvqwYOba-44" edge="1">
          <mxGeometry relative="1" as="geometry">
            <Array as="points">
              <mxPoint x="110" y="100" />
              <mxPoint x="110" y="46" />
            </Array>
          </mxGeometry>
        </mxCell>
        <mxCell id="VhOXe49pOfOXTvqwYOba-59" value="1. Action: RevealSecret,&lt;br&gt;Result: Default Secret&amp;nbsp;" style="edgeLabel;html=1;align=center;verticalAlign=middle;resizable=0;points=[];" parent="VhOXe49pOfOXTvqwYOba-57" vertex="1" connectable="0">
          <mxGeometry x="-0.0702" y="1" relative="1" as="geometry">
            <mxPoint x="37" y="-15" as="offset" />
          </mxGeometry>
        </mxCell>
        <mxCell id="VhOXe49pOfOXTvqwYOba-60" style="edgeStyle=orthogonalEdgeStyle;rounded=0;orthogonalLoop=1;jettySize=auto;html=1;entryX=-0.018;entryY=0.13;entryDx=0;entryDy=0;entryPerimeter=0;" parent="1" source="VhOXe49pOfOXTvqwYOba-46" target="VhOXe49pOfOXTvqwYOba-44" edge="1">
          <mxGeometry relative="1" as="geometry">
            <mxPoint x="200" y="130" as="targetPoint" />
            <Array as="points">
              <mxPoint x="120" y="115" />
              <mxPoint x="120" y="60" />
            </Array>
          </mxGeometry>
        </mxCell>
        <mxCell id="VhOXe49pOfOXTvqwYOba-61" value="2. Action: (RemoveUser: Bob, &lt;br&gt;LockSecret: NewSecret)&lt;br&gt;Result: Success" style="edgeLabel;html=1;align=center;verticalAlign=middle;resizable=0;points=[];" parent="VhOXe49pOfOXTvqwYOba-60" vertex="1" connectable="0">
          <mxGeometry x="0.0391" y="1" relative="1" as="geometry">
            <mxPoint x="38" y="21" as="offset" />
          </mxGeometry>
        </mxCell>
        <mxCell id="VhOXe49pOfOXTvqwYOba-62" style="edgeStyle=orthogonalEdgeStyle;rounded=0;orthogonalLoop=1;jettySize=auto;html=1;entryX=0.015;entryY=0.306;entryDx=0;entryDy=0;entryPerimeter=0;" parent="1" source="VhOXe49pOfOXTvqwYOba-46" target="VhOXe49pOfOXTvqwYOba-44" edge="1">
          <mxGeometry relative="1" as="geometry" />
        </mxCell>
        <mxCell id="VhOXe49pOfOXTvqwYOba-63" value="3. Action: RevealSecret&lt;br&gt;Result: Success" style="edgeLabel;html=1;align=center;verticalAlign=middle;resizable=0;points=[];" parent="VhOXe49pOfOXTvqwYOba-62" vertex="1" connectable="0">
          <mxGeometry x="-0.2425" y="-2" relative="1" as="geometry">
            <mxPoint x="24" y="17" as="offset" />
          </mxGeometry>
        </mxCell>
        <mxCell id="VhOXe49pOfOXTvqwYOba-46" value="Alice" style="shape=umlActor;verticalLabelPosition=bottom;verticalAlign=top;html=1;outlineConnect=0;" parent="1" vertex="1">
          <mxGeometry x="50" y="85" width="30" height="60" as="geometry" />
        </mxCell>
        <mxCell id="VhOXe49pOfOXTvqwYOba-67" style="edgeStyle=orthogonalEdgeStyle;rounded=0;orthogonalLoop=1;jettySize=auto;html=1;entryX=0;entryY=0.5;entryDx=0;entryDy=0;" parent="1" source="VhOXe49pOfOXTvqwYOba-47" target="VhOXe49pOfOXTvqwYOba-44" edge="1">
          <mxGeometry relative="1" as="geometry">
            <mxPoint x="130" y="210" as="sourcePoint" />
            <Array as="points">
              <mxPoint x="110" y="225" />
              <mxPoint x="110" y="175" />
            </Array>
          </mxGeometry>
        </mxCell>
        <mxCell id="VhOXe49pOfOXTvqwYOba-68" value="1. Action: RevealSecret,&lt;br style=&quot;border-color: var(--border-color);&quot;&gt;Result: Default Secret&amp;nbsp;" style="edgeLabel;html=1;align=center;verticalAlign=middle;resizable=0;points=[];" parent="VhOXe49pOfOXTvqwYOba-67" vertex="1" connectable="0">
          <mxGeometry x="0.1464" y="3" relative="1" as="geometry">
            <mxPoint x="21" as="offset" />
          </mxGeometry>
        </mxCell>
        <mxCell id="VhOXe49pOfOXTvqwYOba-73" style="edgeStyle=orthogonalEdgeStyle;rounded=0;orthogonalLoop=1;jettySize=auto;html=1;entryX=0.009;entryY=0.709;entryDx=0;entryDy=0;entryPerimeter=0;" parent="1" source="VhOXe49pOfOXTvqwYOba-47" target="VhOXe49pOfOXTvqwYOba-44" edge="1">
          <mxGeometry relative="1" as="geometry" />
        </mxCell>
        <mxCell id="VhOXe49pOfOXTvqwYOba-74" value="3. Action: Reveal Secret&lt;br&gt;&lt;b&gt;&lt;font color=&quot;#ff0000&quot;&gt;Result: Success&lt;/font&gt;&lt;/b&gt;" style="edgeLabel;html=1;align=center;verticalAlign=middle;resizable=0;points=[];" parent="VhOXe49pOfOXTvqwYOba-73" vertex="1" connectable="0">
          <mxGeometry x="-0.0931" y="-1" relative="1" as="geometry">
            <mxPoint x="14" y="-21" as="offset" />
          </mxGeometry>
        </mxCell>
        <mxCell id="VhOXe49pOfOXTvqwYOba-47" value="Bob" style="shape=umlActor;verticalLabelPosition=bottom;verticalAlign=top;html=1;outlineConnect=0;" parent="1" vertex="1">
          <mxGeometry x="50" y="210" width="30" height="60" as="geometry" />
        </mxCell>
        <mxCell id="VhOXe49pOfOXTvqwYOba-51" value="&lt;div style=&quot;text-align: left;&quot;&gt;&lt;span style=&quot;background-color: initial;&quot;&gt;World state (After Action 1):&lt;/span&gt;&lt;/div&gt;&lt;div style=&quot;text-align: left;&quot;&gt;&lt;span style=&quot;background-color: initial;&quot;&gt;AuthorizationList = [Alice, Bob]&lt;/span&gt;&lt;/div&gt;&lt;div style=&quot;text-align: left;&quot;&gt;&lt;span style=&quot;background-color: initial;&quot;&gt;Secret = Default Secret&lt;/span&gt;&lt;/div&gt;" style="rounded=0;whiteSpace=wrap;html=1;fillColor=#d5e8d4;strokeColor=#82b366;" parent="1" vertex="1">
          <mxGeometry x="420" y="95" width="190" height="65" as="geometry" />
        </mxCell>
        <mxCell id="VhOXe49pOfOXTvqwYOba-53" value="&lt;div style=&quot;text-align: left;&quot;&gt;&lt;span style=&quot;background-color: initial;&quot;&gt;World state (After Action 2):&lt;/span&gt;&lt;/div&gt;&lt;div style=&quot;text-align: left;&quot;&gt;&lt;span style=&quot;background-color: initial;&quot;&gt;&lt;b&gt;&lt;font color=&quot;#ff0000&quot;&gt;AuthorizationList = [Alice, Bob]&lt;/font&gt;&lt;/b&gt;&lt;/span&gt;&lt;/div&gt;&lt;div style=&quot;text-align: left;&quot;&gt;&lt;span style=&quot;background-color: initial;&quot;&gt;Secret = NewSecret&lt;/span&gt;&lt;/div&gt;" style="rounded=0;whiteSpace=wrap;html=1;fillColor=#d5e8d4;strokeColor=#82b366;" parent="1" vertex="1">
          <mxGeometry x="420" y="178" width="190" height="65" as="geometry" />
        </mxCell>
        <mxCell id="VhOXe49pOfOXTvqwYOba-55" value="&lt;div style=&quot;text-align: left;&quot;&gt;&lt;span style=&quot;background-color: initial;&quot;&gt;World state (After Action 3):&lt;/span&gt;&lt;/div&gt;&lt;div style=&quot;text-align: left;&quot;&gt;&lt;span style=&quot;background-color: initial;&quot;&gt;&lt;b&gt;&lt;font color=&quot;#ff0000&quot;&gt;AuthorizationList = [Alice, Bob]&lt;/font&gt;&lt;/b&gt;&lt;/span&gt;&lt;/div&gt;&lt;div style=&quot;text-align: left;&quot;&gt;&lt;span style=&quot;background-color: initial;&quot;&gt;Secret = NewSecret&lt;/span&gt;&lt;/div&gt;" style="rounded=0;whiteSpace=wrap;html=1;fillColor=#d5e8d4;strokeColor=#82b366;" parent="1" vertex="1">
          <mxGeometry x="420" y="265" width="190" height="65" as="geometry" />
        </mxCell>
      </root>
    </mxGraphModel>
  </diagram>
</mxfile>
